<?xml version="1.0" encoding="UTF-8" standalone="no"?>
<!DOCTYPE svg PUBLIC "-//W3C//DTD SVG 1.1//EN" "http://www.w3.org/Graphics/SVG/1.1/DTD/svg11.dtd">
<svg width="100%" height="100%" viewBox="0 0 300 300" version="1.1" xmlns="http://www.w3.org/2000/svg" xmlns:xlink="http://www.w3.org/1999/xlink" xml:space="preserve" xmlns:serif="http://www.serif.com/" style="fill-rule:evenodd;clip-rule:evenodd;stroke-linejoin:round;stroke-miterlimit:2;">
    <g transform="matrix(9.67742,0,0,9.67742,-9.67742,-9.67742)">
        <circle cx="16.5" cy="16.5" r="15.5" style="fill:white;"/>
    </g>
    <g transform="matrix(9.375,0,0,9.375,-1.85962e-15,-1.85962e-15)">
        <g transform="matrix(0.371351,0,0,0.371351,9.64211,18.6712)">
            <text x="-5.324px" y="16.505px" style="font-family:'Roboto-Bold', 'Roboto';font-weight:700;font-size:66.667px;">A</text>
        </g>
        <g transform="matrix(0.030078,0,0,0.030078,17.3873,8.59514)">
            <text x="37.719px" y="16.489px" style="font-family:'Roboto-Bold', 'Roboto';font-weight:700;font-size:66.667px;">bcdef<tspan x="206.73px " y="16.489px ">g</tspan></text>
        </g>
        <g transform="matrix(0.030078,0,0,0.030078,18.231,10.6334)">
            <text x="37.719px" y="16.489px" style="font-family:'Roboto-Bold', 'Roboto';font-weight:700;font-size:66.667px;">hijklmnop</text>
        </g>
        <g transform="matrix(0.030078,0,0,0.030078,18.981,12.5739)">
            <text x="37.719px" y="16.489px" style="font-family:'Roboto-Bold', 'Roboto';font-weight:700;font-size:66.667px;">qrstuv</text>
        </g>
        <g transform="matrix(0.030078,0,0,0.030078,20.0128,14.339)">
            <text x="37.719px" y="16.489px" style="font-family:'Roboto-Bold', 'Roboto';font-weight:700;font-size:66.667px;">wxyz</text>
        </g>
    </g>
</svg>
